<?xml version="1.0" encoding="UTF-8"?>
<svg xmlns="http://www.w3.org/2000/svg" version="1.1" xmlns:svg="http://www.w3.org/2000/svg" xmlns:svgjs="http://svgjs.dev/svgjs" viewBox="0 0 250 225">
  <defs>
    <style>
      .cls-1 {
        fill: #ffdb00;
      }

      .cls-1, .cls-2 {
        fill-rule: evenodd;
      }
    </style>
  </defs>
  <!-- Generator: Adobe Illustrator 28.7.6, SVG Export Plug-In . SVG Version: 1.2.0 Build 188)  -->
  <g>
    <g id="_圖層_1" data-name="圖層_1">
      <g id="svg8">
        <g>
          <path id="path2" class="cls-1" d="M55.8,37.5l21.3-31.9C79.4,2.1,83.3,0,87.5,0h75C166.7,0,170.6,2.1,172.9,5.6l21.3,31.9h43.3c6.9,0,12.5,5.6,12.5,12.5v162.5c0,6.9-5.6,12.5-12.5,12.5H12.5c-6.9,0-12.5-5.6-12.5-12.5V50c0-6.9,5.6-12.5,12.5-12.5h43.3Z"/>
          <path id="path4" class="cls-2" d="M95.2,150l-9,18.1c-3.1,6.2-10.6,8.7-16.8,5.6-6.2-3.1-8.7-10.6-5.6-16.8l50-100c2.1-4.2,6.4-6.9,11.2-6.9s9.1,2.7,11.2,6.9l50,100c3.1,6.2.6,13.7-5.6,16.8-6.2,3.1-13.7.6-16.8-5.6l-9-18.1s-59.6,0-59.6,0ZM107.7,125h34.5l-17.3-34.5-17.3,34.5h.1Z"/>
        </g>
      </g>
    </g>
  </g>
</svg>