<?xml version="1.0" encoding="UTF-8"?>
<svg xmlns="http://www.w3.org/2000/svg" version="1.1" xmlns:svg="http://www.w3.org/2000/svg" viewBox="0 0 512 512">
  <defs>
    <style>
      .cls-1 {
        fill-rule: evenodd;
      }
    </style>
  </defs>
  <!-- Generator: Adobe Illustrator 28.7.6, SVG Export Plug-In . SVG Version: 1.2.0 Build 188)  -->
  <g>
    <g id="svg8">
      <g>
        <path id="path2" class="cls-1" d="M256,81.4L89.8,247.6c-10.3,10.3-27.1,10.3-37.4,0-10.3-10.3-10.3-27.1,0-37.4L237.3,25.4c10.3-10.3,27.1-10.3,37.4,0l184.9,184.9c10.3,10.3,10.3,27.1,0,37.4s-27.1,10.3-37.4,0l-166.2-166.2Z"/>
        <g>
          <path d="M44.7,352.4h112v16.4h-46.7v122.1h-18.7v-122.1h-46.7v-16.4Z"/>
          <path d="M186.2,421.6c0-20.8,6-38.2,17.9-52,12-13.9,28.6-20.8,49.8-20.8s37.6,7,49.6,21.1c12,14,18,30.8,18,50.6s-6,39.5-17.9,53.3c-11.9,13.7-28.5,20.6-49.8,20.6s-36.1-6.5-48.7-19.6c-12.5-13.1-18.8-30.8-18.8-53.2ZM205.5,421.6c0,16.2,4.2,29.6,12.7,40.3,8.5,10.7,20.4,16.1,35.6,16.1s25.4-5,34.5-15c9.2-10.1,13.7-23.9,13.7-41.4s-4.3-30.3-12.9-40.7c-8.6-10.5-20.4-15.7-35.5-15.7s-25.8,5.1-34.8,15.1c-9,10.1-13.4,23.9-13.4,41.3Z"/>
          <path d="M364.3,352.4h62c12.5,0,22.4,3.6,29.8,10.9,7.5,7.2,11.2,16.7,11.2,28.5s-3.8,22.1-11.4,29.5c-7.5,7.4-17.3,11.1-29.4,11.1h-43.5v58.4h-18.7v-138.4ZM383.1,368.7v47.6h37.1c18.6,0,27.9-8.2,27.9-24.7s-9.1-22.9-27.2-22.9h-37.8Z"/>
        </g>
      </g>
    </g>
  </g>
</svg>